<?xml version="1.0" encoding="UTF-8" standalone="no"?>
<!-- Created with Inkscape (http://www.inkscape.org/) -->

<svg
   version="1.1"
   id="svg2"
   width="9333.333"
   height="6666.6665"
   viewBox="{x} {y} {width} {height}"
   sodipodi:docname="baloon_numbers1.eps"
   xmlns:inkscape="http://www.inkscape.org/namespaces/inkscape"
   xmlns:sodipodi="http://sodipodi.sourceforge.net/DTD/sodipodi-0.dtd"
   xmlns="http://www.w3.org/2000/svg"
   xmlns:svg="http://www.w3.org/2000/svg">
  <defs
     id="defs6" />
  <sodipodi:namedview
     id="namedview4"
     pagecolor="#ffffff"
     bordercolor="#000000"
     borderopacity="0.25"
     inkscape:showpageshadow="2"
     inkscape:pageopacity="0.0"
     inkscape:pagecheckerboard="0"
     inkscape:deskcolor="#d1d1d1" />
  <g
     id="g8"
     inkscape:groupmode="layer"
     inkscape:label="ink_ext_XXXXXX"
     transform="matrix(1.3333333,0,0,-1.3333333,0,6666.6667)">
    <g
       id="g10"
       transform="scale(0.1)">
      <path
         d="M 0,0 H 70000 V 50000 H 0 Z"
         style="fill:#ffffff;fill-opacity:1;fill-rule:nonzero;stroke:none"
         id="path12" />
      <path
         d="m 7009.94,27351.7 c 0,0 270.6,132.1 340.29,672.8 l 95.96,-8.8 95.87,9.6 c 74.19,-540.1 345.88,-670 345.88,-670 7.89,-121.7 -438.74,-64.5 -438.74,-64.5 0,0 -446.14,-60.9 -439.26,60.9"
         style="fill:#cc4c65;fill-opacity:1;fill-rule:nonzero;stroke:none"
         id="path14" />
      <path
         d="m 7039.05,27382.6 c 321.04,-80.4 656.49,-27.1 822.63,10.2 54.64,12.2 106.58,-29.2 106.82,-85.2 l 0.02,-4.8 c 0.16,-40.5 -27.35,-75.8 -66.62,-85.5 -153.7,-37.8 -546.76,-113.4 -909.48,-6.5 -37.05,10.9 -62.44,45 -62.6,83.6 l -0.01,2.9 c -0.24,57.3 53.65,99.2 109.24,85.3"
         style="fill:#e8546a;fill-opacity:1;fill-rule:nonzero;stroke:none"
         id="path16" />
      <path
         d="M 9975.7,31897.7 C 8446.74,36894.1 12373.4,46210 7742.02,45432.3 3048.31,44644.2 757.113,38717.7 3156.19,38679.4 4349.17,38660.4 6394.32,40897 6394.32,40897 6538.35,36351.6 5058.64,34207.8 4723.23,30429.5 4387.83,26651.2 11504.7,26901.2 9975.7,31897.7"
         style="fill:#e8546a;fill-opacity:1;fill-rule:nonzero;stroke:none"
         id="path18" />
      <path
         d="m 7339.06,28868.9 h -0.28 c -536.95,0 -1026.63,184.9 -1309.92,494.5 -226.2,247.2 -318.5,566.2 -282.19,975.2 130.36,1468.4 442.3,2671 772.57,3944.2 487.48,1879.2 991.53,3822.3 902.04,6646.8 l -36.36,1147.2 c -10.5,331.5 -282.98,544 -564.77,544 -145.66,0 -293.86,-56.9 -409.55,-183.4 l -774.54,-847 c -4.24,-4.6 -473.17,-514.5 -1065.81,-1015.4 -445.66,-376.7 -771.48,-590.1 -996.08,-710.9 -34.71,-18.6 -70.75,-27.1 -105.74,-27.1 -129.95,0 -245,116.8 -219.98,261.1 0.3,1.7 0.61,3.5 0.93,5.3 59.05,335.9 201.84,724.8 412.88,1124.9 389.9,739.1 977.82,1447.1 1655.48,1993.7 376.87,304 780.25,558.5 1198.95,756.4 448.94,212.3 918.45,360.5 1395.48,440.6 124.93,21 239.73,31.6 341.21,31.6 311.19,0 397.84,-95.4 439.5,-141.2 125.96,-138.8 340.97,-543.9 365.84,-1699.1 21.12,-981.4 -96.12,-2196.2 -220.26,-3482.3 -241.6,-2503.4 -515.46,-5340.8 154.76,-7531 184.85,-604.1 312.13,-1450 -131.36,-2049.4 -314.43,-425 -883.71,-678.7 -1522.8,-678.7"
         style="fill:#ec6f82;fill-opacity:1;fill-rule:nonzero;stroke:none"
         id="path20" />
      <path
         d="m 2693.7,39858.1 c 0,0 72.3,3885.8 5114.74,5295.5 0,0 -3976.12,-1554.3 -5114.74,-5295.5"
         style="fill:#ffffff;fill-opacity:1;fill-rule:nonzero;stroke:none"
         id="path22" />
      <path
         d="m 8867.07,28702.4 c 0,0 1775.73,853.9 569.31,3700.5 0,0 799.72,-2155.2 -569.31,-3700.5"
         style="fill:#ffffff;fill-opacity:1;fill-rule:nonzero;stroke:none"
         id="path24" />
      <path
         d="m 18637.7,27477.5 c 0,0 270.7,132 340.3,672.8 l 96,-8.8 95.9,9.6 c 74.2,-540.2 345.9,-670 345.9,-670 7.8,-121.7 -438.8,-64.5 -438.8,-64.5 0,0 -446.1,-60.9 -439.3,60.9"
         style="fill:#60b239;fill-opacity:1;fill-rule:nonzero;stroke:none"
         id="path26" />
      <path
         d="m 18666.9,27508.4 c 321,-80.5 656.5,-27.1 822.6,10.1 54.6,12.3 106.6,-29.1 106.8,-85.1 v -4.9 c 0.2,-40.4 -27.3,-75.7 -66.6,-85.4 -153.7,-37.9 -546.7,-113.4 -909.5,-6.5 -37,10.9 -62.4,45 -62.6,83.6 v 2.9 c -0.2,57.3 53.7,99.2 109.3,85.3"
         style="fill:#6ace41;fill-opacity:1;fill-rule:nonzero;stroke:none"
         id="path28" />
      <path
         d="m 25680.6,31208.7 c -165.9,636.7 -664.3,1191.9 -1299,1365.6 -297.6,81.4 -610.8,80.6 -919.3,75.4 -1479,-24.5 -2956.7,-132.7 -4423.6,-323.8 988.5,1196.9 2226.4,2159.6 3321.6,3259.8 1095.2,1100.2 2079.1,2406.2 2355.8,3933.7 70.6,389.6 93.7,786.6 91.6,1182.6 -6,1116.4 -248.7,2303.3 -1034.7,3096.2 -479.6,483.7 -1117.8,776.1 -1760.2,1002.8 -1524.6,537.9 -3159.8,760.3 -4772.7,649.3 -607.3,-41.8 -1226.3,-135.1 -1761,-426 -48.8,-26.5 -96.7,-54.9 -143.7,-85.2 -1693.3,-1268.5 -2008.3,-3169.8 -1856.6,-4496.9 60.4,-527.4 181.1,-1096.1 587.6,-1437.5 424.4,-356.5 1044.3,-361.7 1585.7,-243.1 886.5,194 1694.5,665.7 2386.8,1252.3 427.3,362 846,785.7 1393.3,904.2 547.3,118.6 1241,-265.8 1179.8,-822.5 -29.3,-265.9 -216.8,-484.6 -405.3,-674.4 -1326.9,-1335.6 -3110.8,-2147.1 -4427.5,-3492.9 -1518.7,-1552.2 -2036.3,-3896.5 -1666.2,-6227.9 144.9,-912.5 928.5,-1586.1 1852.5,-1595.3 1819.9,-18.3 3640,-16 5459.8,7 789.9,10 1592.4,25.8 2346.8,260.3 754.3,234.5 1467.1,721.2 1791.2,1441.6 195.1,433.7 237.2,934.5 117.3,1394.7"
         style="fill:#6ace41;fill-opacity:1;fill-rule:nonzero;stroke:none"
         id="path30" />
      <path
         d="m 14235.9,42342.4 c 0,0 145.7,3560.4 5277.4,2674.8 0,0 -4047.1,379.5 -5277.4,-2674.8"
         style="fill:#ffffff;fill-opacity:1;fill-rule:nonzero;stroke:none"
         id="path32" />
      <path
         d="m 14682.6,31200.2 c 0,0 -1069.4,3582.1 4467,6470.9 0,0 -3979,-2380.4 -4467,-6470.9"
         style="fill:#ffffff;fill-opacity:1;fill-rule:nonzero;stroke:none"
         id="path34" />
      <path
         d="m 23290.6,28733.2 c 0,0 2819.4,578.3 1789.3,3036.3 0,0 379.5,-2150.7 -1789.3,-3036.3"
         style="fill:#ffffff;fill-opacity:1;fill-rule:nonzero;stroke:none"
         id="path36" />
      <path
         d="m 19271.1,28601.4 c -1907.5,0.1 -3794.5,653.6 -3895.6,2543.3 -193.3,3614.8 4658.7,6185.8 6050.5,8350.8 1018.2,1584 60.5,3178.1 -1147.9,3178.1 -443.2,0 -920.4,-214.7 -1345.8,-723.1 -954.8,-1141.3 -2205.7,-1886.6 -3103.5,-1886.6 -592.6,0 -1031.4,324.8 -1129.8,1074.7 -217.5,1657.5 1546.4,2448.5 1546.4,2448.5 1049.9,536.9 2131.4,807.7 3151.2,807.7 1801,0 3409.4,-844.7 4310.4,-2560.3 1411.1,-2687 -2339,-5528.5 -4388,-7231.7 -1980.7,-1646.2 -2173.4,-2979.7 -33.4,-2979.6 73.9,0 150.8,1.6 230.3,4.8 169.3,6.9 337.5,10.3 504.1,10.3 2176.1,0 4028.3,-589.8 3184.4,-1846.7 -433.6,-645.8 -2192,-1190.3 -3933.3,-1190.2"
         style="fill:#82d660;fill-opacity:1;fill-rule:nonzero;stroke:none"
         id="path38" />
      <path
         d="m 32819,27477.5 c 0,0 270.6,132 340.3,672.8 l 96,-8.8 95.8,9.6 c 74.2,-540.2 345.9,-670 345.9,-670 7.9,-121.7 -438.7,-64.5 -438.7,-64.5 0,0 -446.2,-60.9 -439.3,60.9"
         style="fill:#156c7a;fill-opacity:1;fill-rule:nonzero;stroke:none"
         id="path40" />
      <path
         d="m 32848.1,27508.4 c 321.1,-80.5 656.5,-27.1 822.7,10.1 54.6,12.3 106.5,-29.1 106.8,-85.1 v -4.9 c 0.2,-40.4 -27.3,-75.7 -66.6,-85.4 -153.7,-37.9 -546.8,-113.4 -909.5,-6.5 -37,10.9 -62.4,45 -62.6,83.6 v 2.9 c -0.2,57.3 53.6,99.2 109.2,85.3"
         style="fill:#1a8199;fill-opacity:1;fill-rule:nonzero;stroke:none"
         id="path42" />
      <path
         d="m 38390.2,42611.7 c -2210.1,3817.5 -8008.1,4362.8 -9701.6,143.5 -1693.5,-4219.4 1808.3,-4362.9 1808.3,-4362.9 507.2,-39 855.4,204.8 1084.4,483.2 239.4,291 362.6,658.6 367.7,1035.3 34.1,2544.8 3439.9,1643.2 3022.8,-456.5 -255.3,-1285.4 -1185.4,-1514.4 -1906.5,-1485.6 -485.2,19.3 -886,-373.9 -870.2,-859.2 l 24.5,-749.9 c 13.9,-427.4 349.5,-772.1 776,-803.7 1949,-144.4 2826.7,-2742.5 572.5,-3306.1 -1547.1,-386.7 -1780.4,357.2 -1729,991.7 60.8,750.5 -361.6,1460.9 -1061.9,1737.4 -1532.7,605 -3042.6,-711.4 -2551.1,-2642.9 628.2,-2468.5 4079.1,-6199.9 8413.3,-3013.9 4334.1,3186.1 1262.9,7434.1 1262.9,7434.1 0,0 2698.1,2037.9 487.9,5855.5"
         style="fill:#1a8199;fill-opacity:1;fill-rule:nonzero;stroke:none"
         id="path44" />
      <path
         d="m 33304.5,29258.9 h -0.2 c -1146.9,0.1 -2030.5,613.5 -2569.7,1128 -788.1,752.1 -1228.9,1648.5 -1378.5,2236.6 -111.7,439 -64.2,821 133.9,1075.8 131.4,169 319.8,262 530.8,262 105.1,0 215.6,-22.5 328.2,-67 216.3,-85.4 348.1,-309.8 327.9,-558.6 -70.9,-874.2 243.2,-1414.4 519.2,-1713.7 271.3,-294.1 772.9,-644.7 1622,-644.7 314.6,0 652.5,46.3 1032.8,141.4 1456.5,364.1 2323.7,1462.6 2209.1,2798.5 -118.9,1387.2 -1250.3,2531.9 -2684.4,2766.6 l -4,121.4 c 1435.8,73.2 2454.8,966.7 2743.9,2421.9 168.4,847.9 -33.1,1673.3 -567.3,2324.1 -552.8,673.4 -1397.8,1075.4 -2260.2,1075.4 -1189,0 -2480,-844.9 -2504.9,-2700.2 -1.6,-121.8 -37.9,-231.9 -102.2,-310 -36.7,-44.6 -59.9,-58.8 -64.6,-61.5 -1.9,-0.2 -6.1,-0.7 -13.5,-0.7 -5,0 -10.5,0.2 -16.5,0.7 l -35,2.7 -2.1,-0.1 c -84.7,8.4 -735.4,87.2 -1002.8,512.4 -267.3,425 -187.7,1224.4 224.3,2251 294.5,733.6 750.2,1298.4 1354.5,1678.6 558.8,351.4 1240.9,537.3 1972.8,537.3 816.1,0 1644.3,-224.3 2395.2,-648.5 788.1,-445.3 1441,-1088.7 1888,-1860.9 727.3,-1256.2 899.8,-2379.5 512.6,-3338.6 -261.1,-646.9 -690.1,-999 -694.3,-1002.1 l -920.7,-695.5 676.7,-915.6 c 36.3,-52.4 640,-940.1 798.6,-2090 87.5,-634.2 22.3,-1233.6 -193.6,-1781.7 -278.9,-707.6 -821.1,-1361.1 -1611.7,-1942.3 -905.1,-665.3 -1794.8,-1002.7 -2644.3,-1002.7"
         style="fill:#318ea3;fill-opacity:1;fill-rule:nonzero;stroke:none"
         id="path46" />
      <path
         d="m 29132.9,42396.4 c 0,0 550.7,3367.2 4563,2753.5 0,0 -3257,330.5 -4563,-2753.5"
         style="fill:#ffffff;fill-opacity:1;fill-rule:nonzero;stroke:none"
         id="path48" />
      <path
         d="m 29877.5,30465.3 c 0,0 1781.1,-3593.4 5640.1,-1234.3 0,0 -3249.7,-1687.3 -5640.1,1234.3"
         style="fill:#ffffff;fill-opacity:1;fill-rule:nonzero;stroke:none"
         id="path50" />
      <path
         d="m 50491,27477.5 c 0,0 270.6,132 340.3,672.8 l 95.9,-8.8 95.9,9.6 c 74.2,-540.2 345.9,-670 345.9,-670 7.8,-121.7 -438.8,-64.5 -438.8,-64.5 0,0 -446.1,-60.9 -439.2,60.9"
         style="fill:#d8a452;fill-opacity:1;fill-rule:nonzero;stroke:none"
         id="path52" />
      <path
         d="m 49021.1,36839.9 c 106,-1805.5 -2205.4,-1105.7 -2990,-1042.1 -784.6,63.6 -933.1,1378.4 0,2226.6 933,848.3 3096,3011.3 3096,3011.3 0,0 -212,-2390.2 -106,-4195.8 m 4056.4,-941.9 c -291.5,187.5 -465.5,512.4 -465.5,859.1 v 5713.5 c 0,2488.2 -933.1,3647.4 -3308.2,2940.6 -2375,-706.9 -4608.7,-3732.3 -6276.9,-6050.8 -1668.2,-2318.5 -1187.5,-6390.1 2007.5,-6701.1 1368.6,-133.2 2317,-250.9 2954,-341.9 576.5,-82.3 980.6,-613.1 903.6,-1190.3 -95.2,-713.7 -58,-1677.5 581.5,-2426.2 1122.3,-1314 3914.4,-719.7 3269.9,2963.2 -33.3,190 52.9,382.2 218.1,481.8 306.1,184.4 756.8,680.4 866.3,2012 0,0 230.6,1109.1 -750.3,1740.1"
         style="fill:#ffc65f;fill-opacity:1;fill-rule:nonzero;stroke:none"
         id="path54" />
      <path
         d="m 50865.9,29207 v 0 c -201.4,0.1 -397.1,88.3 -523.4,236.2 -373.2,437 -378.7,1074.7 -317.6,1532.8 159.1,1193.2 -681.9,2302.5 -1874.9,2472.9 -809.3,115.6 -1820.3,232.7 -3004.9,348 -402.3,39.1 -747.3,164.9 -1025.2,373.9 -257.7,193.7 -465.4,462 -617.3,797.7 -236.3,522 -323.4,1181.5 -245.4,1857 79.7,689.9 327.4,1353.1 697.4,1867.4 1347.1,1872.2 3601.7,5005.7 5675.3,5622.8 350.3,104.3 653.7,157.2 901.9,157.2 411.7,0 534.3,-140.9 624.7,-285.2 142.6,-227.6 312.6,-710.3 312.6,-1717.1 v -5713.5 c 0,-741 370.1,-1421.4 990.1,-1820.3 125.8,-81 194,-173.1 227.8,-308.2 30.5,-122.1 20.5,-232.5 17.4,-259.1 l -9.9,-47.9 -5.8,-70.1 c -71.7,-872 -302.3,-1110.6 -323.5,-1130.6 -560.8,-341.6 -861.1,-1005.2 -747.6,-1653.9 159.1,-908.9 71.3,-1643.2 -240.7,-2014.5 -170.5,-202.9 -372,-245.5 -511,-245.5 m -1040.1,13911.7 c -140.6,0 -284.2,-52.2 -402,-170.1 L 48319,41843.8 c -21.5,-21.4 -2154.5,-2153.5 -3056.8,-2973.7 -869.1,-790.1 -1230.2,-1974.9 -898.5,-2948.2 245.5,-720.4 849,-1204.4 1575,-1263.3 78.7,-6.3 230.5,-30.5 377.4,-53.9 379.8,-60.6 852.4,-135.9 1342.4,-135.9 843.4,0 1496.4,238.9 1940.8,710.2 285.2,302.5 614.4,847.8 562.8,1727.9 -100,1701.8 101.4,4004.7 103.5,4027.8 l 138,1556.2 c 32.8,369.4 -265.1,627.8 -577.8,627.8"
         style="fill:#ffd17f;fill-opacity:1;fill-rule:nonzero;stroke:none"
         id="path56" />
      <path
         d="m 45975.5,42488.8 c 0,0 1991,2860.9 4871.3,2822.3 0,0 -2429,-393 -4871.3,-2822.3"
         style="fill:#ffffff;fill-opacity:1;fill-rule:nonzero;stroke:none"
         id="path58" />
      <path
         d="m 42515.4,36380.4 c 0,0 -193.4,-3208.8 3150.8,-3498.8 0,0 -2590.3,579.9 -3150.8,3498.8"
         style="fill:#ffffff;fill-opacity:1;fill-rule:nonzero;stroke:none"
         id="path60" />
      <path
         d="m 51243,28522.6 c 0,0 1720.5,396.3 1188.9,2928.5 0,0 183.6,-2049 -1188.9,-2928.5"
         style="fill:#ffffff;fill-opacity:1;fill-rule:nonzero;stroke:none"
         id="path62" />
      <path
         d="m 50522.1,27508.4 c 321.1,-80.5 656.5,-27.1 822.7,10.1 54.6,12.3 106.6,-29.1 106.8,-85.1 v -4.9 c 0.2,-40.4 -27.3,-75.7 -66.6,-85.4 -153.7,-37.9 -546.8,-113.4 -909.5,-6.5 -37,10.9 -62.4,45 -62.6,83.6 v 2.9 c -0.2,57.3 53.7,99.2 109.2,85.3"
         style="fill:#ffc65f;fill-opacity:1;fill-rule:nonzero;stroke:none"
         id="path64" />
      <path
         d="m 61674.7,27505.8 c 0,0 270.6,132.1 340.3,672.8 l 95.9,-8.8 95.9,9.6 c 74.2,-540.1 345.9,-670 345.9,-670 7.9,-121.7 -438.8,-64.5 -438.8,-64.5 0,0 -446.1,-60.9 -439.2,60.9"
         style="fill:#c14d97;fill-opacity:1;fill-rule:nonzero;stroke:none"
         id="path66" />
      <path
         d="m 61705.9,27536.7 c 321,-80.4 656.5,-27.1 822.6,10.2 54.6,12.2 106.6,-29.2 106.8,-85.2 v -4.8 c 0.2,-40.5 -27.3,-75.8 -66.6,-85.5 -153.7,-37.8 -546.7,-113.4 -909.5,-6.5 -37,10.9 -62.4,45 -62.6,83.6 v 2.9 c -0.2,57.3 53.7,99.2 109.3,85.3"
         style="fill:#ed70ba;fill-opacity:1;fill-rule:nonzero;stroke:none"
         id="path68" />
      <path
         d="m 61565.4,41873.8 c 2444.4,-60.4 5945,-1177 6156.3,1478.6 0,0 301.7,2263.4 -2414.2,2263.4 -2716,0 -3470.5,0 -5763.9,0 -2293.5,0 -2353.9,-2082.3 -2323.7,-2927.2 30.2,-845 -39,-2504.8 -4.4,-4737.9 34.6,-2233.2 1694.3,-2021.9 2478.9,-1991.7 784.6,30.1 3591.2,875.1 4345.6,-1629.6 754.4,-2504.8 -2716,-3319.6 -3711.8,-1539.1 -995.9,1780.5 -4556.8,332 -2987.6,-2414.2 1569.2,-2746.2 6548.5,-3168.6 8600.6,-603.5 2052.1,2565.1 2203,8268.6 -1086.4,9083.4 -1639.9,406.2 -2732.3,512.4 -3415.4,516.7 -739.7,4.8 -1343.5,607.6 -1336.4,1347.3 5.8,612.6 315.7,1182.1 1462.4,1153.8"
         style="fill:#ed70ba;fill-opacity:1;fill-rule:nonzero;stroke:none"
         id="path70" />
      <path
         d="m 64529.3,38427.2 c 0,0 2725.6,-502.6 2377.6,-4832.6 0,0 96.7,3208.8 -2377.6,4832.6"
         style="fill:#ffffff;fill-opacity:1;fill-rule:nonzero;stroke:none"
         id="path72" />
      <path
         d="m 57657.3,38838 c 0,0 -633.1,-3054.3 2778.8,-2435.7 0,0 -2638.7,-241.6 -2778.8,2435.7"
         style="fill:#ffffff;fill-opacity:1;fill-rule:nonzero;stroke:none"
         id="path74" />
      <path
         d="m 64973.9,45308.8 c 0,0 2551.6,193.3 2300.3,-2126.3 0,0 0,1739.7 -2300.3,2126.3"
         style="fill:#ffffff;fill-opacity:1;fill-rule:nonzero;stroke:none"
         id="path76" />
      <path
         d="m 61633.4,28943.7 c -3094.4,0 -4217.1,1885.3 -3676.5,2930.5 211.6,409 531.2,568.5 886.7,568.5 618.7,0 1346,-483.4 1800.3,-974.5 227,-245.4 769.3,-415.3 1386.1,-415.3 1326.3,0.1 2996.8,785.8 2615.2,3295.6 -374.5,2463.7 -3082.2,2870.1 -4828.3,2870.1 -34.3,0 -68.2,-0.1 -101.7,-0.4 -4.4,-0.1 -8.7,-0.1 -13.2,-0.1 -774.8,0 -1412.5,612.1 -1442.1,1387.9 -37.4,983.7 -71.9,2331.1 -51.7,3648.6 34.7,2254.5 2154.1,2399.8 3301.7,2399.8 131.5,0 250.4,-2 351.8,-2.8 0,0 283.4,-8.6 1257.2,-8.6 486.8,0 1146.2,2.1 2029,8.6 10.5,0.1 21,0.1 31.5,0.1 1216.9,0 1684.8,-520.9 1550.6,-1041.7 -134.2,-520.9 -870.4,-1041.7 -2061.6,-1041.7 -172.3,0 -354.2,10.9 -545.1,34.3 -795.7,97.4 -1472.1,156.9 -2040.2,156.9 -1460.7,0 -2205.1,-393.6 -2418.6,-1548.7 -296.5,-1604.5 322.1,-2609.6 2429.1,-2783.6 2107.1,-174 3730.8,-811.9 4310.7,-3208.9 579.9,-2397 -436.7,-5934.4 -4065.1,-6243.7 -245.8,-21 -481,-30.9 -705.8,-30.9"
         style="fill:#f087c5;fill-opacity:1;fill-rule:nonzero;stroke:none"
         id="path78" />
      <path
         d="m 58215.8,30264.5 c 88.8,-87.8 183.2,-166.9 279.3,-242.5 96.5,-75.2 195.6,-145.8 297,-211.6 202.7,-131.7 413.6,-246.7 631.8,-342.6 217.8,-96.7 441.8,-175.9 670.2,-238.8 114.3,-31.2 229.7,-58.1 345.9,-81.2 116.2,-23.1 233.2,-42.8 351,-57.5 l 44.1,-5.9 44.3,-4.9 c 29.5,-3.1 58.9,-7.1 88.6,-9.5 l 88.8,-8.2 c 29.6,-2.7 59.4,-4.1 89.1,-6.4 l 44.5,-3.2 44.6,-2.3 89.4,-4.4 c 59.7,-1.4 119.3,-4.2 179.2,-4.2 119.6,-2.3 239.5,0.9 359.7,4.3 120.1,5.4 240.5,11.6 361,21.8 241.3,18.8 482.9,48.4 725.5,83.9 l 182.2,27.7 c 60.7,10 121.4,20.4 182.6,29.8 60.7,11 121.9,21 183.2,31.3 61.2,10.8 122.4,21.8 184.5,30.9 -55.3,-29.3 -111.4,-56.7 -167.6,-84.3 -56.7,-26.1 -113.7,-51.7 -171.1,-76.7 -57.6,-24.4 -115.8,-47.2 -173.9,-70.7 -58.7,-21.9 -117.6,-43.2 -176.7,-64.4 -237.1,-81.8 -480.9,-146.7 -728.9,-195.6 -124,-24.9 -249.4,-43.1 -375.2,-59.1 l -94.8,-9.9 c -31.5,-3.5 -63.2,-6.3 -94.9,-8.4 l -95.2,-7 -95.4,-4.3 -47.7,-2.1 c -16,-0.6 -31.9,-0.5 -47.8,-0.8 l -95.7,-1.2 c -32,0.2 -63.9,1 -95.8,1.5 l -47.9,1 -47.9,2.1 c -31.9,1.5 -63.9,2.7 -95.8,5 l -95.8,7.1 c -31.9,2.4 -63.7,6.4 -95.6,9.6 l -47.8,5.1 -47.7,6.2 c -31.7,4.5 -63.5,8.3 -95.2,13.4 l -95,15.6 c -63.1,12 -126.3,23.5 -188.8,38.3 -125.3,28.5 -249.5,62.1 -371.6,102.8 -244,81 -480.2,186.2 -701.4,316 -221.1,129.9 -427.7,283.2 -611.5,459 -91.7,88.1 -178.2,181 -256.7,280.2 -39.4,49.3 -76.7,100.3 -111.9,152.5 -34.5,52.7 -68,106 -95.2,162.6"
         style="fill:#ffffff;fill-opacity:1;fill-rule:nonzero;stroke:none"
         id="path80" />
      <path
         d="m 6729.36,4891.7 c 0,0 270.6,132.1 340.29,672.9 l 95.96,-8.9 95.87,9.7 c 74.19,-540.2 345.88,-670 345.88,-670 7.89,-121.7 -438.74,-64.6 -438.74,-64.6 0,0 -446.13,-60.9 -439.26,60.9"
         style="fill:#9cb751;fill-opacity:1;fill-rule:nonzero;stroke:none"
         id="path82" />
      <path
         d="m 6760.55,4922.6 c 321.03,-80.4 656.49,-27.1 822.63,10.2 54.63,12.2 106.58,-29.2 106.81,-85.2 l 0.02,-4.8 c 0.17,-40.4 -27.34,-75.8 -66.61,-85.5 -153.7,-37.8 -546.76,-113.4 -909.48,-6.5 -37.05,10.9 -62.44,45 -62.6,83.7 l -0.02,2.8 c -0.24,57.3 53.65,99.3 109.25,85.3"
         style="fill:#b4da60;fill-opacity:1;fill-rule:nonzero;stroke:none"
         id="path84" />
      <path
         d="m 7464.44,9354.2 c -2813.02,66.1 -1947.33,2882.7 -1947.33,2882.7 1886.58,1011.7 3177.97,-116.6 3399.02,-1244.9 163.16,-832.9 -257.01,-1665.9 -1451.69,-1637.8 m 2171.69,8714.1 c 2122.27,317.3 3576.87,826.4 3127.27,2644.6 0,0 -449.6,2247.9 -3543.79,1163.6 C 6125.38,20792.2 1414.24,18068.3 2163.19,10570.7 2912.15,3073.2 11401.4,4779 11956.8,9579 c 555.4,4800 -3649.61,6505.8 -5434.72,6109.1 0,0 991.73,2062.8 3114.05,2380.2"
         style="fill:#b4da60;fill-opacity:1;fill-rule:nonzero;stroke:none"
         id="path86" />
      <path
         d="m 6941.68,6535.2 c -2017.08,0.3 -3713.64,1447.3 -4049.87,5108.5 -521.93,5683.1 3363.49,8350.7 6377.65,9249.6 479.22,142.9 863.94,203 1172.14,203 663.7,0 972.7,-278.7 1105.7,-609.1 206.2,-512.1 -97.8,-1087 -634.4,-1216.7 -5867.32,-1418.2 -5353.48,-4582.3 -5353.48,-4582.3 396.05,171.6 800.07,249.6 1202.05,249.6 3318.93,0 6485.13,-5320.5 3640.23,-7208.5 C 9266.93,6976.2 8055.6,6535.1 6941.68,6535.2 m -95.79,6610.5 c -548.94,0 -1169.57,-153.2 -1848.69,-517.4 0,0 -1137.91,-3702.2 2559.61,-3789.1 25.88,-0.6 51.3,-0.9 76.62,-0.9 1511.53,0 2042.46,1076.9 1831.53,2153.7 -210.98,1076.9 -1163.59,2153.7 -2619.07,2153.7"
         style="fill:#c0e07a;fill-opacity:1;fill-rule:nonzero;stroke:none"
         id="path88" />
      <path
         d="m 9219.49,14590.3 c 0,0 2975.81,-1589.5 2290.21,-4745.1 0,0 222.5,2337.5 -2290.21,4745.1"
         style="fill:#ffffff;fill-opacity:1;fill-rule:nonzero;stroke:none"
         id="path90" />
      <path
         d="m 7464.44,20800.1 c 0,0 3858.46,2232.7 4989.26,159.5 0,0 -1613.3,1174.3 -4989.26,-159.5"
         style="fill:#ffffff;fill-opacity:1;fill-rule:nonzero;stroke:none"
         id="path92" />
      <path
         d="m 2619.38,10564.6 c 0,0 326.15,-6282.4 6600.11,-4098 0,0 -5304.97,-1276.1 -6600.11,4098"
         style="fill:#ffffff;fill-opacity:1;fill-rule:nonzero;stroke:none"
         id="path94" />
      <path
         d="m 21284.3,4669.6 c 0,0 270.6,132.1 340.3,672.9 l 95.9,-8.8 95.9,9.6 c 74.2,-540.2 345.9,-670 345.9,-670 7.9,-121.7 -438.8,-64.6 -438.8,-64.6 0,0 -446.1,-60.8 -439.2,60.9"
         style="fill:#c9553a;fill-opacity:1;fill-rule:nonzero;stroke:none"
         id="path96" />
      <path
         d="m 21315.5,4700.5 c 321,-80.4 656.5,-27.1 822.6,10.2 54.6,12.3 106.6,-29.2 106.8,-85.2 v -4.8 c 0.2,-40.4 -27.3,-75.8 -66.6,-85.4 -153.7,-37.9 -546.7,-113.4 -909.5,-6.6 -37,11 -62.4,45 -62.6,83.7 v 2.8 c -0.2,57.4 53.7,99.3 109.3,85.3"
         style="fill:#fa724a;fill-opacity:1;fill-rule:nonzero;stroke:none"
         id="path98" />
      <path
         d="m 24249.2,22172.1 h -3017.4 c 0,0 -424.9,0 -2974.8,0 -2549.8,0 -2634.8,-1912.4 -1954.9,-3272.3 478.1,-956.2 3592.9,-777.8 5400.3,-587.7 615.3,64.8 1101.1,-513.4 932.2,-1108.6 C 21892,14585.6 20232.2,8725.7 19871.9,7383 c -467.4,-1742.4 2209.9,-3442.3 4079.8,-849.9 1326.4,1838.9 2289.3,8938.3 2736.9,12909.7 164.1,1455.3 -974.9,2729.3 -2439.4,2729.3"
         style="fill:#fa724a;fill-opacity:1;fill-rule:nonzero;stroke:none"
         id="path100" />
      <path
         d="m 21747,6265.2 v 0 c -290.5,0 -564.1,130.7 -732,349.6 -84.3,109.9 -173.1,284.7 -117.3,493 359.8,1340.9 2049.1,7304.2 2758.7,9805.8 167.2,589.4 51.4,1207.7 -317.8,1696.1 -369.6,489 -931.6,769.5 -1542,769.5 -68.1,0 -137.2,-3.6 -205.4,-10.8 -900.5,-94.8 -1744.5,-144.8 -2440.6,-144.8 -1319.2,0 -1807.7,177.5 -1941.9,242.2 -225.9,498.3 -272.6,1012.6 -110.1,1275.5 198.2,320.8 810.9,368.7 1158.4,368.7 h 5992.2 c 402,0 770.9,-165.1 1038.7,-464.8 267.7,-299.5 390.3,-684.3 345.3,-1083.4 -213.5,-1894.5 -565.2,-4678.2 -1027.9,-7180.4 -245,-1325 -497.3,-2442.1 -750,-3320.2 -352.5,-1225 -630.6,-1720.5 -765,-1906.8 -413.6,-573.4 -890.7,-889.2 -1343.3,-889.2"
         style="fill:#fb8967;fill-opacity:1;fill-rule:nonzero;stroke:none"
         id="path102" />
      <path
         d="m 23737.9,21892.3 c 2706.3,-464 2638.6,-2870.6 2638.6,-2870.6 376.9,3044.5 -2638.6,2870.6 -2638.6,2870.6"
         style="fill:#ffffff;fill-opacity:1;fill-rule:nonzero;stroke:none"
         id="path104" />
      <path
         d="m 21795.2,5558 c 0,0 2590.3,367.3 3150.8,5045.3 0,0 -773.2,-3769.5 -3150.8,-5045.3"
         style="fill:#ffffff;fill-opacity:1;fill-rule:nonzero;stroke:none"
         id="path106" />
      <path
         d="m 16508.3,19244 c 0,0 -1101.8,2149.3 1333.8,2650.1 0,0 -1701.1,-562.4 -1333.8,-2650.1"
         style="fill:#ffffff;fill-opacity:1;fill-rule:nonzero;stroke:none"
         id="path108" />
      <path
         d="m 34438.5,4729.5 c 0,0 270.6,132.1 340.3,672.8 l 95.9,-8.8 95.9,9.6 c 74.2,-540.1 345.9,-670 345.9,-670 7.8,-121.7 -438.8,-64.5 -438.8,-64.5 0,0 -446.1,-60.9 -439.2,60.9"
         style="fill:#2ba089;fill-opacity:1;fill-rule:nonzero;stroke:none"
         id="path110" />
      <path
         d="m 34469.7,4760.4 c 321,-80.5 656.4,-27.1 822.6,10.1 54.6,12.3 106.6,-29.1 106.8,-85.1 v -4.8 c 0.2,-40.5 -27.3,-75.8 -66.6,-85.5 -153.7,-37.9 -546.8,-113.4 -909.5,-6.5 -37,10.9 -62.4,45 -62.6,83.6 v 2.9 c -0.2,57.3 53.7,99.2 109.3,85.3"
         style="fill:#3dd3b7;fill-opacity:1;fill-rule:nonzero;stroke:none"
         id="path112" />
      <path
         d="m 34629.5,15527.1 c 0,0 -1423.7,1100.1 -647.1,2394.5 776.6,1294.3 3537.8,-560.9 647.1,-2394.5 m -878.9,-5824.4 c -296.5,1294.3 1174.3,2006.2 1174.3,2006.2 2474,-2890.7 -877.8,-3300.6 -1174.3,-2006.2 m 4712.3,4050.2 c 813.4,498.8 1456.1,1312.1 1645.9,2615.5 647.2,4443.8 -5695,8067.9 -9060.2,4098.6 -2992.3,-3529.4 -185.7,-6171.8 473.1,-6714.1 -658.8,-542.3 -3465.4,-3184.7 -473.1,-6714.1 3365.2,-3969.2 9707.4,-345.1 9060.2,4098.7 -189.8,1303.3 -832.5,2116.6 -1645.9,2615.4"
         style="fill:#3dd3b7;fill-opacity:1;fill-rule:nonzero;stroke:none"
         id="path114" />
      <path
         d="m 34639,6395.9 h -0.6 c -515.7,0 -1006,103.8 -1457.2,308.3 -491.9,223 -936.9,566.7 -1322.5,1021.5 -442.8,522.3 -756.2,1042.8 -931.3,1547.1 -141.3,406.6 -195,812.5 -159.7,1206.5 47.7,532 255.7,1062.1 618,1575.4 320.3,453.8 673.9,765.3 811,878.2 l 996.2,820 -996.2,820 c -137.1,112.9 -490.7,424.5 -811,878.2 -362.3,513.4 -570.3,1043.4 -618,1575.5 -35.3,393.9 18.4,799.9 159.7,1206.5 175.1,504.2 488.5,1024.8 931.3,1547.1 385.8,454.9 830.7,798.7 1322.5,1021.6 451.1,204.5 941.3,308.2 1457.1,308.2 1261.9,0 2594.7,-634.5 3478.2,-1656 755.2,-873.2 1089.5,-1914.7 941.3,-2932.6 -66.9,-459.5 -208.7,-854.1 -421.5,-1172.8 -185.1,-277.3 -423.4,-503.1 -728.6,-690.2 l -1476.6,-905.5 1476.6,-905.4 c 305.2,-187.1 543.5,-412.9 728.6,-690.2 212.8,-318.8 354.6,-713.4 421.5,-1172.9 148.3,-1018.2 -186.1,-2059.9 -941.6,-2933.2 C 37233,7030.1 35900.5,6395.9 34639,6395.9 m 560.3,6625.7 -737.1,-356.7 c -89.5,-43.4 -558.1,-282.2 -996.8,-733.1 -686.5,-705.3 -952.8,-1581.2 -750.1,-2466.3 205.6,-897.5 1067.1,-1524.4 2095.1,-1524.4 851.3,0 1580.9,435.8 1903.8,1137.3 296.8,644.7 367.3,1744.1 -982.4,3321.1 l -532.5,622.1 m -448.4,6393.9 c -705.9,0 -1318,-345.3 -1679.3,-947.5 -998.5,-1664.2 157.7,-3201.2 908.5,-3781.4 l 589.4,-455.4 628.9,399 c 2001,1269.2 1855.2,2652.3 1699.6,3188 -268.8,925.6 -1171.8,1597.3 -2147.1,1597.3"
         style="fill:#5cdac3;fill-opacity:1;fill-rule:nonzero;stroke:none"
         id="path116" />
      <path
         d="m 34379.3,21699 c 0,0 5625.2,-77.4 5238.6,-5702.5 0,0 231.9,4233.3 -5238.6,5702.5"
         style="fill:#ffffff;fill-opacity:1;fill-rule:nonzero;stroke:none"
         id="path118" />
      <path
         d="m 31431.4,13406.2 c 0,0 -2551.6,-3015.6 -376.9,-5886.1 0,0 -1333.8,2435.6 376.9,5886.1"
         style="fill:#ffffff;fill-opacity:1;fill-rule:nonzero;stroke:none"
         id="path120" />
      <path
         d="m 37564,6505.2 c 0,0 2073.2,1275.8 2276.2,3479.5 0,0 -435,-1623.8 -2276.2,-3479.5"
         style="fill:#ffffff;fill-opacity:1;fill-rule:nonzero;stroke:none"
         id="path122" />
      <path
         d="m 45637.8,4613.9 c 0,0 262.6,128.1 330.2,652.8 l 93.1,-8.6 93,9.4 c 72,-524.1 335.6,-650.1 335.6,-650.1 7.6,-118.1 -425.7,-62.6 -425.7,-62.6 0,0 -432.9,-59.1 -426.2,59.1"
         style="fill:#ce596f;fill-opacity:1;fill-rule:nonzero;stroke:none"
         id="path124" />
      <path
         d="m 45668.1,4643.9 c 311.4,-78.1 636.9,-26.3 798.1,9.8 53,11.9 103.4,-28.3 103.6,-82.6 l 0.1,-4.7 c 0.1,-39.2 -26.6,-73.5 -64.7,-82.9 -149.1,-36.7 -530.5,-110 -882.4,-6.3 -35.9,10.6 -60.6,43.6 -60.7,81.1 v 2.8 c -0.3,55.6 52,96.3 106,82.8"
         style="fill:#ff788c;fill-opacity:1;fill-rule:nonzero;stroke:none"
         id="path126" />
      <path
         d="m 49934.1,15923.6 c -2713.3,-1846.1 -4769.2,1160.9 -2377.6,2014 2391.6,853.2 2377.6,-2014 2377.6,-2014 m 2923.1,2629.4 c -1384.6,4699.3 -9188.8,5286.7 -9608.4,-1090.9 -419.6,-6377.6 6083.9,-5244.8 6083.9,-5244.8 C 48453.6,9848.5 46664.8,9071.6 45323,8836 44437.7,8680.6 43868.1,7810.1 44086.1,6938.1 l 158,-632.1 c 202.6,-810.2 1012.6,-1315.2 1828.1,-1135.4 8128,1791.7 8094.5,8938.1 6785,13382.4"
         style="fill:#ff788c;fill-opacity:1;fill-rule:nonzero;stroke:none"
         id="path128" />
      <path
         d="m 45740.4,6164.8 v 0 c -234.8,0 -439,160.8 -496.6,391.1 l -158,632.1 c -47.1,188.4 22,333.8 67.4,403.6 46.1,71 152.6,195.1 348.1,229.5 2275.7,399.6 3979.5,1833.5 4797.5,4037.7 l 628.5,1693.4 -1769.9,-319.4 c -26.3,-4.3 -397.6,-62.8 -923.5,-62.8 -600.8,0 -1155,72.8 -1647.1,216.4 -616.7,180 -1114.4,468.9 -1479.4,858.6 -289.2,308.9 -506.8,695.3 -646.9,1148.7 -172.4,557.7 -234.1,1230.8 -183.4,2000.7 43.5,661.6 180.2,1252.6 406.2,1756.7 198.6,443 467.5,820.9 799.2,1123.3 308.3,281 670.7,497.4 1077.2,643.3 398.4,142.9 829.1,215.3 1280.4,215.3 871.2,0 1749.7,-271.7 2473.8,-765.3 764.8,-521.2 1302.5,-1249.5 1554.8,-2105.9 295.1,-1001.7 639.7,-2556.6 605,-4275.9 -32.9,-1632.8 -399.7,-3053.2 -1090.2,-4222 -499.4,-845.3 -1177.7,-1566 -2016,-2142 -952,-654.2 -2135.3,-1140.4 -3517.1,-1445 -36.6,-8 -73.6,-12.1 -110,-12.1 m 2629.5,12961.9 c -363.1,0 -753.2,-73.5 -1159.6,-218.5 -1492.5,-532.4 -1853,-1698.4 -1708.3,-2535.1 207.5,-1198.8 1354,-2068.9 2726.4,-2068.9 757.2,0 1547.5,265.4 2285.4,767.5 l 448.1,304.8 2.7,542 c 0.8,163.6 -17.9,1624.6 -913.7,2525 -444.7,447 -1026,683.2 -1681,683.2"
         style="fill:#ff8e9e;fill-opacity:1;fill-rule:nonzero;stroke:none"
         id="path130" />
      <path
         d="m 43697.5,17927.2 c 0,0 774,4951.3 5890.7,3638.4 0,0 -4219.6,825.3 -5890.7,-3638.4"
         style="fill:#ffffff;fill-opacity:1;fill-rule:nonzero;stroke:none"
         id="path132" />
      <path
         d="m 46391.7,5431.6 c 0,0 4107.4,872.1 5907.8,4346.5 0,0 -2138,-2925.8 -5907.8,-4346.5"
         style="fill:#ffffff;fill-opacity:1;fill-rule:nonzero;stroke:none"
         id="path134" />
      <path
         d="m 45997.8,8765.3 c 0,0 -1758.3,-112.5 -1687.9,-1786.4 0,0 140.6,1251.9 1687.9,1786.4"
         style="fill:#ffffff;fill-opacity:1;fill-rule:nonzero;stroke:none"
         id="path136" />
      <path
         d="m 62330.7,4493 c 0,0 270.6,132.1 340.3,672.9 l 95.9,-8.8 95.9,9.6 c 74.2,-540.2 345.9,-670 345.9,-670 7.9,-121.7 -438.8,-64.6 -438.8,-64.6 0,0 -446.1,-60.9 -439.2,60.9"
         style="fill:#3393aa;fill-opacity:1;fill-rule:nonzero;stroke:none"
         id="path138" />
      <path
         d="m 62361.9,4523.9 c 321,-80.4 656.4,-27.1 822.6,10.2 54.6,12.3 106.6,-29.2 106.8,-85.2 v -4.8 c 0.2,-40.4 -27.3,-75.8 -66.6,-85.4 -153.7,-37.9 -546.8,-113.4 -909.5,-6.6 -37,10.9 -62.4,45 -62.6,83.7 v 2.8 c -0.2,57.3 53.7,99.3 109.3,85.3"
         style="fill:#3fafd1;fill-opacity:1;fill-rule:nonzero;stroke:none"
         id="path140" />
      <path
         d="m 62662.8,8809 c -1004.9,-21.9 -1835.1,568 -1835.1,2228.3 0,1660.3 0,1398.2 0,4303.8 0,2905.5 1835.1,2752.6 1835.1,2752.6 1463.7,-43.7 1398.2,-1354.5 1573,-5133.9 174.7,-3779.5 -568.1,-4129 -1573,-4150.8 m -43.7,13348.2 c 0,0 -4456.7,349.5 -5286.8,-4194.6 -820.6,-4491.4 -1427.7,-12824.7 5056,-12932.7 132.5,-2.2 265,-8.6 397.2,-17.5 841.7,-57 4606.5,56.4 5033.1,6571.1 480.6,7340.4 -742.8,10748.4 -5199.5,10573.7"
         style="fill:#3fafd1;fill-opacity:1;fill-rule:nonzero;stroke:none"
         id="path142" />
      <path
         d="m 63011,6113.3 h -0.2 c -52.9,0 -103.5,1.6 -150.5,4.8 -163.6,11.1 -311.9,17.6 -453.6,19.9 -1350.9,22.5 -2355.8,458.2 -3072.2,1332.1 -423.8,516.8 -756.1,1199.9 -987.9,2030.3 -216.6,776 -347.4,1687.2 -388.6,2708.1 -82.4,2039 207.1,4146.3 464.5,5555 134.6,736.9 390.8,1358.6 761.4,1847.8 296.7,391.7 676,710.3 1127.5,947 855.1,448.4 1745.9,496.8 2089.2,496.8 74.8,0 122.4,-2.4 134.9,-3.1 l 68.4,-6.2 58.6,3.9 c 95.1,3.8 185.5,5.6 276.6,5.6 589.2,0 1102.3,-80.5 1525,-239.2 390.8,-146.7 715.1,-361.4 991.3,-656.3 271,-289.3 503.6,-668.4 691.1,-1126.7 201.8,-493 359.2,-1095.1 467.7,-1789.6 220.2,-1408.7 252.4,-3236.4 98.5,-5587.6 -83.7,-1277.3 -310,-2360.5 -672.8,-3219.6 C 65759.7,7772.7 65397,7242 64962,6859 64225,6210.3 63423.4,6113.3 63011,6113.3 m -395,13090.1 c -291.9,0 -1044.9,-64.9 -1731.3,-665.5 -773.2,-676.6 -1165.3,-1752.2 -1165.3,-3196.8 v -4303.8 c 0,-2460.5 1492.9,-3337.2 2890.1,-3337.2 25.6,0 51.6,0.3 77.4,0.8 318,7 1162.8,25.3 1803.4,711 720.9,771.6 967.9,2104.1 852.5,4599.1 -13.4,290.9 -25.4,565.2 -36.9,830.5 -72.6,1667.8 -120.5,2769.7 -356.3,3575.9 -334.2,1143.2 -1086.3,1743.2 -2235.5,1783.5 -26.2,1.4 -59.1,2.5 -98.1,2.5"
         style="fill:#5ebcd8;fill-opacity:1;fill-rule:nonzero;stroke:none"
         id="path144" />
      <path
         d="m 60140.8,21392.7 c 0,0 -2628.9,-1198.5 -2686.9,-5779.8 0,0 444.6,3672.7 2686.9,5779.8"
         style="fill:#ffffff;fill-opacity:1;fill-rule:nonzero;stroke:none"
         id="path146" />
      <path
         d="m 62769.7,5483.7 c 0,0 3305.6,-193.3 4368.8,3962.7 0,0 -1237.4,-3170.2 -4368.8,-3962.7"
         style="fill:#ffffff;fill-opacity:1;fill-rule:nonzero;stroke:none"
         id="path148" />
      <path
         d="m 62866.4,18589.7 c 0,0 1894.4,116 1720.4,-3324.8 0,0 792.6,3653.5 -1720.4,3324.8"
         style="fill:#ffffff;fill-opacity:1;fill-rule:nonzero;stroke:none"
         id="path150" />
    </g>
  </g>
</svg>
