<?xml version="1.0" encoding="utf-8"?>
<svg viewBox="113.7328 1206.0801 1240.3736 288.1466" width="1240.3736" height="288.1466" xmlns="http://www.w3.org/2000/svg">
  <path d="m 953.281,10128.8 588.399,956.3 -688.684,1066.2 1887.574,-131.1 1846,141.2 1846.1,13 1846.35,-81.3 1876.78,46.1 -778.51,-1054.1 761.81,-1035.6 -1859.75,-27.9 -1846.01,108.2 -1846.1,-94.1 -1847.26,-22.4 -1786.699,115.5" style="fill:#f3acd6;fill-opacity:1;fill-rule:nonzero;stroke:none" id="path26" transform="matrix(0.13333332737286874, 0, 0, -0.13333332737286874, 2.842170943040401e-14, 2829.3332519531255)"/>
  <path d="m 6489.15,10398.1 c -587.58,-5.8 -1172.31,-71.9 -1759.71,-81.5 -586.49,-9.6 -1173.67,19.8 -1759.76,38.3 -613.82,19.4 -1227.65,38.8 -1841.47,58.2 l -45.09,-73.3 c 553.64,-17.5 1107.28,-35 1660.93,-52.5 592.98,-18.7 1186.66,-46.9 1780.02,-47 588.66,-0.1 1173.86,63.5 1761.86,79.4 579.57,15.7 1158.95,-14.4 1737.91,-37.4 642.35,-25.5 1287,-41.2 1927.68,22.1 l -51.46,70 c -1135.34,-104.8 -2273.86,34.9 -3410.91,23.7 z m -2948.98,1377.3 c 306.72,1.8 612.58,26.6 917.54,58 305.2,31.5 609.76,69.2 915.45,95.6 307.42,26.6 615.46,38 924.01,35.4 610.72,-5.2 1219.58,-57.9 1828.56,-99 600.56,-40.5 1203.81,-69.7 1805.26,-30.7 l 58.32,79 c -544.22,-38.9 -1090.8,-21.6 -1635.09,11.7 -609.44,37.3 -1217.95,93.5 -1828.55,109.7 -304.67,8 -609.73,5.9 -913.97,-13.4 -309.3,-19.5 -617.23,-55.3 -925.2,-89.1 -304.71,-33.4 -609.95,-65.1 -916.39,-77.2 -306.39,-12.2 -613.09,-2.2 -918.83,19.5 -615.81,43.9 -1227.38,133.5 -1843.39,175.2 -30.96,2.1 -61.972,3.4 -92.956,5.3 l 50.207,-77.7 c 553.759,-35.8 1104.129,-110.8 1656.849,-159.2 305.3,-26.7 611.61,-45 918.18,-43.1" style="fill:#ffffff;fill-opacity:1;fill-rule:nonzero;stroke:none" id="path28" transform="matrix(0.13333332737286874, 0, 0, -0.13333332737286874, 2.842170943040401e-14, 2829.3332519531255)"/>
</svg>